<svg width="40" height="40" viewBox="0 0 40 40" fill="none" xmlns="http://www.w3.org/2000/svg">
<g clip-path="url(#clip0_219_17)">
<path fill-rule="evenodd" clip-rule="evenodd" d="M19 3H21V10H19V3ZM20 29C24.9706 29 29 24.9706 29 20C29 15.0294 24.9706 11 20 11C15.0294 11 11 15.0294 11 20C11 24.9706 15.0294 29 20 29ZM8.6796 7.27793L7.26611 8.69287L12.2184 13.6401L13.6319 12.2251L8.6796 7.27793ZM2.99902 20.9873L3.00052 18.9873L10.0005 18.9926L9.99902 20.9926L2.99902 20.9873ZM7.26923 31.3108L8.68311 32.7253L13.634 27.7768L12.2201 26.3622L7.26923 31.3108ZM21 30V37H19V30H21ZM27.7812 26.36L26.3677 27.7749L31.32 32.7221L32.7335 31.3072L27.7812 26.36ZM29.999 21.0076L30.0005 19.0076L37.0005 19.0128L36.999 21.0128L29.999 21.0076ZM26.3654 12.2234L27.7793 13.6379L32.7302 8.68936L31.3163 7.27481L26.3654 12.2234Z" fill="#FFDB03"/>
<g filter="url(#filter0_f_219_17)">
<path fill-rule="evenodd" clip-rule="evenodd" d="M19 3H21V10H19V3ZM20 29C24.9706 29 29 24.9706 29 20C29 15.0294 24.9706 11 20 11C15.0294 11 11 15.0294 11 20C11 24.9706 15.0294 29 20 29ZM8.6796 7.27793L7.26611 8.69287L12.2184 13.6401L13.6319 12.2251L8.6796 7.27793ZM2.99902 20.9873L3.00052 18.9873L10.0005 18.9926L9.99902 20.9926L2.99902 20.9873ZM7.26923 31.3108L8.68311 32.7253L13.634 27.7768L12.2201 26.3622L7.26923 31.3108ZM21 30V37H19V30H21ZM27.7812 26.36L26.3677 27.7749L31.32 32.7221L32.7335 31.3072L27.7812 26.36ZM29.999 21.0076L30.0005 19.0076L37.0005 19.0128L36.999 21.0128L29.999 21.0076ZM26.3654 12.2234L27.7793 13.6379L32.7302 8.68936L31.3163 7.27481L26.3654 12.2234Z" fill="#FFDB03"/>
</g>
</g>
<defs>
<filter id="filter0_f_219_17" x="-1.00098" y="-1" width="42.0015" height="42" filterUnits="userSpaceOnUse" color-interpolation-filters="sRGB">
<feFlood flood-opacity="0" result="BackgroundImageFix"/>
<feBlend mode="normal" in="SourceGraphic" in2="BackgroundImageFix" result="shape"/>
<feGaussianBlur stdDeviation="2" result="effect1_foregroundBlur_219_17"/>
</filter>
<clipPath id="clip0_219_17">
<rect width="40" height="40" fill="white"/>
</clipPath>
</defs>
</svg>
