<svg width="40" height="40" viewBox="0 0 40 40" fill="none" xmlns="http://www.w3.org/2000/svg">
    <g clip-path="url(#clip0_219_28)">
        <path fill-rule="evenodd" clip-rule="evenodd" d="M19 3H21V10H19V3ZM20 29C24.9706 29 29 24.9706 29 20C29 15.0294 24.9706 11 20 11C15.0294 11 11 15.0294 11 20C11 24.9706 15.0294 29 20 29ZM8.6796 7.27793L7.26611 8.69287L12.2184 13.6401L13.6319 12.2251L8.6796 7.27793ZM2.99902 20.9873L3.00052 18.9873L10.0005 18.9926L9.99902 20.9926L2.99902 20.9873ZM7.26923 31.3108L8.68311 32.7253L13.634 27.7768L12.2201 26.3622L7.26923 31.3108ZM21 30V37H19V30H21ZM27.7812 26.36L26.3677 27.7749L31.32 32.7221L32.7335 31.3072L27.7812 26.36ZM29.999 21.0076L30.0005 19.0076L37.0005 19.0128L36.999 21.0128L29.999 21.0076ZM26.3654 12.2234L27.7793 13.6379L32.7302 8.68936L31.3163 7.27481L26.3654 12.2234Z" fill="#FFDB03"/>
        <g filter="url(#filter0_f_219_28)">
        <path fill-rule="evenodd" clip-rule="evenodd" d="M19 3H21V10H19V3ZM20 29C24.9706 29 29 24.9706 29 20C29 15.0294 24.9706 11 20 11C15.0294 11 11 15.0294 11 20C11 24.9706 15.0294 29 20 29ZM8.6796 7.27793L7.26611 8.69287L12.2184 13.6401L13.6319 12.2251L8.6796 7.27793ZM2.99902 20.9873L3.00052 18.9873L10.0005 18.9926L9.99902 20.9926L2.99902 20.9873ZM7.26923 31.3108L8.68311 32.7253L13.634 27.7768L12.2201 26.3622L7.26923 31.3108ZM21 30V37H19V30H21ZM27.7812 26.36L26.3677 27.7749L31.32 32.7221L32.7335 31.3072L27.7812 26.36ZM29.999 21.0076L30.0005 19.0076L37.0005 19.0128L36.999 21.0128L29.999 21.0076ZM26.3654 12.2234L27.7793 13.6379L32.7302 8.68936L31.3163 7.27481L26.3654 12.2234Z" fill="#FFDB03"/>
    </g>
    <g filter="url(#filter1_b_219_28)">
    <path d="M34.2803 40H14.1213C12.7631 40 11.4604 39.4604 10.5 38.5L10.2926 38.2926C9.46496 37.465 9 36.3424 9 35.172C9 34.404 9.20043 33.6493 9.58147 32.9824L10.4709 31.4258C11.4556 29.7027 13.041 28.403 14.9237 27.7754L17.25 27C18.1943 26.6852 18.9352 25.9443 19.25 25C19.8023 23.3431 21.5931 22.4477 23.25 23L24.3446 23.3649C24.6142 23.4547 24.8743 23.571 25.1211 23.712L29.3105 26.106C29.7623 26.3642 30.2737 26.5 30.7941 26.5C31.2583 26.5 31.7162 26.3919 32.1314 26.1843L32.4022 26.0489C33.7088 25.3956 35.2586 25.4551 36.5112 26.2067L36.8927 26.4356C37.7766 26.966 38.4784 27.7525 38.905 28.691L38.9872 28.8718C39.3251 29.6153 39.5 30.4226 39.5 31.2392V32.5324C39.5 33.1764 39.4468 33.8192 39.3409 34.4544L39.0967 35.9199C39.0325 36.3052 38.9222 36.6815 38.7683 37.0406C37.9989 38.8359 36.2335 40 34.2803 40Z" fill="#D9D9D9" fill-opacity="0.29"/>
    </g>
</g>
<defs>
<filter id="filter0_f_219_28" x="-1.00098" y="-1" width="42.0015" height="42" filterUnits="userSpaceOnUse" color-interpolation-filters="sRGB">
<feFlood flood-opacity="0" result="BackgroundImageFix"/>
<feBlend mode="normal" in="SourceGraphic" in2="BackgroundImageFix" result="shape"/>
<feGaussianBlur stdDeviation="2" result="effect1_foregroundBlur_219_28"/>
</filter>
<filter id="filter1_b_219_28" x="5" y="18.8369" width="38.5" height="25.1631" filterUnits="userSpaceOnUse" color-interpolation-filters="sRGB">
<feFlood flood-opacity="0" result="BackgroundImageFix"/>
<feGaussianBlur in="BackgroundImageFix" stdDeviation="2"/>
<feComposite in2="SourceAlpha" operator="in" result="effect1_backgroundBlur_219_28"/>
<feBlend mode="normal" in="SourceGraphic" in2="effect1_backgroundBlur_219_28" result="shape"/>
</filter>
<clipPath id="clip0_219_28">
<rect width="40" height="40" fill="white"/>
</clipPath>
</defs>
</svg>
