<svg width="40" height="40" viewBox="0 0 40 40" fill="none" xmlns="http://www.w3.org/2000/svg">
<path d="M29.0039 20C29.0039 24.9706 24.9745 29 20.0039 29C20.0039 29 24.5 24.9706 24.5 20C24.5 15.0294 20.0039 11 20.0039 11C24.9745 11 29.0039 15.0294 29.0039 20Z" fill="#D9D9D9"/>
<g filter="url(#filter0_f_219_55)">
<path d="M29.0039 20C29.0039 24.9706 24.9745 29 20.0039 29C20.0039 29 24.5 24.9706 24.5 20C24.5 15.0294 20.0039 11 20.0039 11C24.9745 11 29.0039 15.0294 29.0039 20Z" fill="#D9D9D9"/>
</g>
<g filter="url(#filter1_b_219_55)">
<path d="M34.2803 40H14.1213C12.7631 40 11.4604 39.4604 10.5 38.5L10.2926 38.2926C9.46496 37.465 9 36.3424 9 35.172C9 34.404 9.20043 33.6493 9.58147 32.9824L10.4709 31.4258C11.4556 29.7027 13.041 28.403 14.9237 27.7754L17.25 27C18.1943 26.6852 18.9352 25.9443 19.25 25C19.8023 23.3431 21.5931 22.4477 23.25 23L24.3446 23.3649C24.6142 23.4547 24.8743 23.571 25.1211 23.712L29.3105 26.106C29.7623 26.3642 30.2737 26.5 30.7941 26.5C31.2583 26.5 31.7162 26.3919 32.1314 26.1843L32.4022 26.0489C33.7088 25.3956 35.2586 25.4551 36.5112 26.2067L36.8927 26.4356C37.7766 26.966 38.4784 27.7525 38.905 28.691L38.9872 28.8718C39.3251 29.6153 39.5 30.4226 39.5 31.2392V32.5324C39.5 33.1764 39.4468 33.8192 39.3409 34.4544L39.0967 35.9199C39.0325 36.3052 38.9222 36.6815 38.7683 37.0406C37.9989 38.8359 36.2335 40 34.2803 40Z" fill="#D9D9D9" fill-opacity="0.29"/>
</g>
<defs>
<filter id="filter0_f_219_55" x="16.0039" y="7" width="17" height="26" filterUnits="userSpaceOnUse" color-interpolation-filters="sRGB">
<feFlood flood-opacity="0" result="BackgroundImageFix"/>
<feBlend mode="normal" in="SourceGraphic" in2="BackgroundImageFix" result="shape"/>
<feGaussianBlur stdDeviation="2" result="effect1_foregroundBlur_219_55"/>
</filter>
<filter id="filter1_b_219_55" x="5" y="18.8369" width="38.5" height="25.1631" filterUnits="userSpaceOnUse" color-interpolation-filters="sRGB">
<feFlood flood-opacity="0" result="BackgroundImageFix"/>
<feGaussianBlur in="BackgroundImageFix" stdDeviation="2"/>
<feComposite in2="SourceAlpha" operator="in" result="effect1_backgroundBlur_219_55"/>
<feBlend mode="normal" in="SourceGraphic" in2="effect1_backgroundBlur_219_55" result="shape"/>
</filter>
</defs>
</svg>
