<svg width="40" height="40" viewBox="0 0 40 40" fill="none" xmlns="http://www.w3.org/2000/svg">
<g filter="url(#filter0_b_219_58)">
<path d="M7.7449 24H29.3841C30.8994 24 32.3504 23.3876 33.4075 22.302L33.5806 22.1243C34.4907 21.1897 35 19.9367 35 18.6322C35 17.7804 34.7826 16.9427 34.3685 16.1984L33.3846 14.4303C32.335 12.5439 30.6238 11.1131 28.5814 10.414L26.0908 9.5614C25.0584 9.20798 24.2526 8.38918 23.9156 7.35124C23.3177 5.50911 21.3268 4.51385 19.4944 5.14109L18.3983 5.51629C18.1062 5.61629 17.8249 5.7454 17.5585 5.90167L13.0195 8.5653C12.5344 8.84994 11.9822 9 11.4198 9C10.9177 9 10.4227 8.88037 9.97605 8.651L9.68154 8.49978C8.27137 7.77571 6.58532 7.84137 5.23574 8.67293L4.79318 8.94562C3.85478 9.52382 3.11365 10.3729 2.66752 11.3808L2.548 11.6508C2.18666 12.4672 2 13.3501 2 14.2428V15.7042C2 16.4188 2.05751 17.1322 2.17198 17.8375L2.43958 19.4863C2.50695 19.9014 2.62281 20.3072 2.78477 20.6953C3.62001 22.6967 5.57622 24 7.7449 24Z" fill="#D9D9D9" fill-opacity="0.29"/>
</g>
<g filter="url(#filter1_b_219_58)">
<path d="M32.2803 31H12.1213C10.7631 31 9.46043 30.4604 8.5 29.5L8.2926 29.2926C7.46496 28.465 7 27.3424 7 26.172C7 25.404 7.20043 24.6493 7.58147 23.9824L8.47095 22.4258C9.45561 20.7027 11.041 19.403 12.9237 18.7754L15.25 18C16.1943 17.6852 16.9352 16.9443 17.25 16C17.8023 14.3431 19.5931 13.4477 21.25 14L22.3446 14.3649C22.6142 14.4547 22.8743 14.571 23.1211 14.712L27.3105 17.106C27.7623 17.3642 28.2737 17.5 28.7941 17.5C29.2583 17.5 29.7162 17.3919 30.1314 17.1843L30.4022 17.0489C31.7088 16.3956 33.2586 16.4551 34.5112 17.2067L34.8927 17.4356C35.7766 17.966 36.4784 18.7525 36.905 19.691L36.9872 19.8718C37.3251 20.6153 37.5 21.4226 37.5 22.2392V23.5324C37.5 24.1764 37.4468 24.8192 37.3409 25.4544L37.0967 26.9199C37.0325 27.3052 36.9222 27.6815 36.7683 28.0406C35.9989 29.8359 34.2335 31 32.2803 31Z" fill="#D9D9D9" fill-opacity="0.29"/>
</g>
<g filter="url(#filter2_b_219_58)">
<path d="M16.736 35.9553L15.5407 32.1302C15.5282 32.0903 15.4718 32.0903 15.4593 32.1302L14.264 35.9553C14.1048 36.4647 14.2743 37.0195 14.691 37.3528C15.164 37.7312 15.836 37.7312 16.309 37.3528C16.7257 37.0195 16.8952 36.4647 16.736 35.9553Z" fill="#6DCEFB" fill-opacity="0.63"/>
</g>
<g filter="url(#filter3_b_219_58)">
<path d="M33.736 34.9553L32.5407 31.1302C32.5282 31.0903 32.4718 31.0903 32.4593 31.1302L31.264 34.9553C31.1048 35.4647 31.2743 36.0195 31.691 36.3528C32.164 36.7312 32.836 36.7312 33.309 36.3528C33.7257 36.0195 33.8952 35.4647 33.736 34.9553Z" fill="#6DCEFB" fill-opacity="0.63"/>
</g>
<g filter="url(#filter4_b_219_58)">
<path d="M20.736 37.9553L19.5407 34.1302C19.5282 34.0903 19.4718 34.0903 19.4593 34.1302L18.264 37.9553C18.1048 38.4647 18.2743 39.0195 18.691 39.3528C19.164 39.7312 19.836 39.7312 20.309 39.3528C20.7257 39.0195 20.8952 38.4647 20.736 37.9553Z" fill="#6DCEFB" fill-opacity="0.63"/>
</g>
<g filter="url(#filter5_b_219_58)">
<path d="M27.824 36.6369L27.0271 34.0868C27.0188 34.0602 26.9812 34.0602 26.9729 34.0868L26.176 36.6369C26.0699 36.9764 26.1829 37.3463 26.4607 37.5685C26.776 37.8208 27.224 37.8208 27.5393 37.5685C27.8171 37.3463 27.9301 36.9764 27.824 36.6369Z" fill="#6DCEFB" fill-opacity="0.63"/>
</g>
<g filter="url(#filter6_b_219_58)">
<path d="M23.824 34.6369L23.0271 32.0868C23.0188 32.0602 22.9812 32.0602 22.9729 32.0868L22.176 34.6369C22.0699 34.9764 22.1829 35.3463 22.4607 35.5685C22.776 35.8208 23.224 35.8208 23.5393 35.5685C23.8171 35.3463 23.9301 34.9764 23.824 34.6369Z" fill="#6DCEFB" fill-opacity="0.63"/>
</g>
<g filter="url(#filter7_b_219_58)">
<path d="M12.824 33.6369L12.0271 31.0868C12.0188 31.0602 11.9812 31.0602 11.9729 31.0868L11.176 33.6369C11.0699 33.9764 11.1829 34.3463 11.4607 34.5685C11.776 34.8208 12.224 34.8208 12.5393 34.5685C12.8171 34.3463 12.9301 33.9764 12.824 33.6369Z" fill="#6DCEFB" fill-opacity="0.63"/>
</g>
<defs>
<filter id="filter0_b_219_58" x="-2" y="0.953125" width="41" height="27.0469" filterUnits="userSpaceOnUse" color-interpolation-filters="sRGB">
<feFlood flood-opacity="0" result="BackgroundImageFix"/>
<feGaussianBlur in="BackgroundImageFix" stdDeviation="2"/>
<feComposite in2="SourceAlpha" operator="in" result="effect1_backgroundBlur_219_58"/>
<feBlend mode="normal" in="SourceGraphic" in2="effect1_backgroundBlur_219_58" result="shape"/>
</filter>
<filter id="filter1_b_219_58" x="3" y="9.83691" width="38.5" height="25.1631" filterUnits="userSpaceOnUse" color-interpolation-filters="sRGB">
<feFlood flood-opacity="0" result="BackgroundImageFix"/>
<feGaussianBlur in="BackgroundImageFix" stdDeviation="2"/>
<feComposite in2="SourceAlpha" operator="in" result="effect1_backgroundBlur_219_58"/>
<feBlend mode="normal" in="SourceGraphic" in2="effect1_backgroundBlur_219_58" result="shape"/>
</filter>
<filter id="filter2_b_219_58" x="10.2051" y="28.1003" width="10.5898" height="13.5361" filterUnits="userSpaceOnUse" color-interpolation-filters="sRGB">
<feFlood flood-opacity="0" result="BackgroundImageFix"/>
<feGaussianBlur in="BackgroundImageFix" stdDeviation="2"/>
<feComposite in2="SourceAlpha" operator="in" result="effect1_backgroundBlur_219_58"/>
<feBlend mode="normal" in="SourceGraphic" in2="effect1_backgroundBlur_219_58" result="shape"/>
</filter>
<filter id="filter3_b_219_58" x="27.2051" y="27.1003" width="10.5898" height="13.5361" filterUnits="userSpaceOnUse" color-interpolation-filters="sRGB">
<feFlood flood-opacity="0" result="BackgroundImageFix"/>
<feGaussianBlur in="BackgroundImageFix" stdDeviation="2"/>
<feComposite in2="SourceAlpha" operator="in" result="effect1_backgroundBlur_219_58"/>
<feBlend mode="normal" in="SourceGraphic" in2="effect1_backgroundBlur_219_58" result="shape"/>
</filter>
<filter id="filter4_b_219_58" x="14.2051" y="30.1003" width="10.5898" height="13.5361" filterUnits="userSpaceOnUse" color-interpolation-filters="sRGB">
<feFlood flood-opacity="0" result="BackgroundImageFix"/>
<feGaussianBlur in="BackgroundImageFix" stdDeviation="2"/>
<feComposite in2="SourceAlpha" operator="in" result="effect1_backgroundBlur_219_58"/>
<feBlend mode="normal" in="SourceGraphic" in2="effect1_backgroundBlur_219_58" result="shape"/>
</filter>
<filter id="filter5_b_219_58" x="22.1367" y="30.0669" width="9.72656" height="11.6909" filterUnits="userSpaceOnUse" color-interpolation-filters="sRGB">
<feFlood flood-opacity="0" result="BackgroundImageFix"/>
<feGaussianBlur in="BackgroundImageFix" stdDeviation="2"/>
<feComposite in2="SourceAlpha" operator="in" result="effect1_backgroundBlur_219_58"/>
<feBlend mode="normal" in="SourceGraphic" in2="effect1_backgroundBlur_219_58" result="shape"/>
</filter>
<filter id="filter6_b_219_58" x="18.1367" y="28.0669" width="9.72656" height="11.6909" filterUnits="userSpaceOnUse" color-interpolation-filters="sRGB">
<feFlood flood-opacity="0" result="BackgroundImageFix"/>
<feGaussianBlur in="BackgroundImageFix" stdDeviation="2"/>
<feComposite in2="SourceAlpha" operator="in" result="effect1_backgroundBlur_219_58"/>
<feBlend mode="normal" in="SourceGraphic" in2="effect1_backgroundBlur_219_58" result="shape"/>
</filter>
<filter id="filter7_b_219_58" x="7.13672" y="27.0669" width="9.72656" height="11.6909" filterUnits="userSpaceOnUse" color-interpolation-filters="sRGB">
<feFlood flood-opacity="0" result="BackgroundImageFix"/>
<feGaussianBlur in="BackgroundImageFix" stdDeviation="2"/>
<feComposite in2="SourceAlpha" operator="in" result="effect1_backgroundBlur_219_58"/>
<feBlend mode="normal" in="SourceGraphic" in2="effect1_backgroundBlur_219_58" result="shape"/>
</filter>
</defs>
</svg>
